<mxfile host="app.diagrams.net" modified="2023-08-22T03:22:28.795Z" agent="Mozilla/5.0 (Windows NT 10.0; Win64; x64) AppleWebKit/537.36 (KHTML, like Gecko) Chrome/116.0.0.0 Safari/537.36" version="21.6.8" etag="Cn2DM1VpR5Ju65HdP-Gl" type="github">
  <diagram name="第 1 页" id="L9PBpdkxV-6ePR_BGKKA">
    <mxGraphModel>
      <root>
        <mxCell id="0" />
        <mxCell id="1" parent="0" />
      </root>
    </mxGraphModel>
  </diagram>
</mxfile>
